# xmcd
#
# Track frame offsets:
#	150
#	21420
#	44382
#	65983
#	78701
#	96542
#	111932
#	129110
#	147120
#	166497
#	184297
#	201821
#	214793
#	232570
#
# Disc length: 3336 seconds
#
# Revision: 2
# Processed by: cddbd v1.5.2PL0 Copyright (c) Steve Scherf et al.
# Submitted via: audiograbber 1.83.01
#
DISCID=cc0d060e
DTITLE=StarDisc - SD162
DYEAR=2008
DGENRE=Karaoke
TTITLE0=Rascal Flatts - Winner At A Losing Game
TTITLE1=Reba McEntire and Justin Timberlake - Only Promise That Remains
TTITLE2=Brad Paisley - Letter To Me
TTITLE3=Toby Keith - Get My Drink On
TTITLE4=Brooks and Dunn - God Must Be Busy
TTITLE5=Jack Ingram - Maybe She'll Get Lonely
TTITLE6=Josh Gracin - We Weren't Crazy
TTITLE7=Luke Bryan - We Rode In Trucks
TTITLE8=Bon Jovi and LeAnn Rimes - Till We Ain't Strangers Anymore
TTITLE9=Lady Antebellum - Love Don't Live Here
TTITLE10=Travis Tritt - Something Stronger Than Me
TTITLE11=Mark Chestnutt - Rollin' With The Flow
TTITLE12=Lori McKenna - Unglamorous
TTITLE13=Deana Carter and Willie Nelson - On The Road Again
EXTD=
EXTT0=
EXTT1=
EXTT2=
EXTT3=
EXTT4=
EXTT5=
EXTT6=
EXTT7=
EXTT8=
EXTT9=
EXTT10=
EXTT11=
EXTT12=
EXTT13=
PLAYORDER=
